/* XPM */
static char *c1c89394f3b94fdacc9f444aceb61e999vyc7tNzALd3F4Q6[] = {
/* columns rows colors chars-per-pixel */
"64 64 2 1 ",
"  c #503197",
". c #BF53C9",
/* pixels */
"                                                                ",
"                                                                ",
"                                                                ",
"                                                                ",
"                                                                ",
"                                                                ",
"                                                                ",
"                                                                ",
"                                                                ",
"                                                                ",
"                                                                ",
"                                                                ",
"                                                                ",
"                                                                ",
"                                                                ",
"                                                                ",
"         ............................................           ",
"         ............................................           ",
"         ............................................           ",
"         ............................................           ",
"                                                                ",
"                                                                ",
"                                                                ",
"                                                                ",
"         ............................................           ",
"         ............................................           ",
"         ............................................           ",
"         ............................................           ",
"                                                                ",
"                                                                ",
"                                                                ",
"                                                                ",
"                                                                ",
"                                                                ",
"                                                                ",
"                                                                ",
"                                                                ",
"                                                                ",
"                                                ......          ",
"                                                ......          ",
"                                                ......          ",
"                                                ......          ",
"                                                                ",
"                                                                ",
"                                                                ",
"                                                                ",
"                                                                ",
"                                                                ",
"                                                                ",
"                                                                ",
"                                                                ",
"                                                                ",
"                                                                ",
"                                                                ",
"                                                                ",
"                                                                ",
"                                                                ",
"                                                                ",
"                                                                ",
"                                                                ",
"                                                                ",
"                                                                ",
"                                                                ",
"                                                                "
};
