/* XPM */
static char *_3ce22fd0b82437de70148ba267cd7f35YdMqCZjPDLsTR4d[] = {
/* columns rows colors chars-per-pixel */
"64 64 13 1 ",
"  c #503197",
". c #285BC4",
"X c #2773CD",
"o c #E17CB7",
"O c #BF53C9",
"+ c #258BD7",
"@ c #24A2DC",
"# c #22B5D5",
"$ c #21C8CD",
"% c #31DBCA",
"& c #6BEBD2",
"* c #EFAAA5",
"= c #A5FCDB",
/* pixels */
"OOOOOOOOOOOOOOOOOOOOOOOOOOOOOOOOOOOOOOOOOOOOOOOOOOOOOOOOOOOO    ",
"OOOOOOOOOOOOOOOOOOOOOOOOOOOOOOOOOOOOOOOOOOOOOOOOOOOOOOOOOOOO    ",
"OOOOOOOOOOOOOOOOOOOOOOOOOOOOOOOOOOOOOOOOOOOOOOOOOOOOOOOOOOOO    ",
"OOOOOOOOOOOOOOOOOOOOOOOOOOOOOOOOOOOOOOOOOOOOOOOOOOOOOOOOOOOO    ",
"OOOO****OOOOoooooooooooooooooooooooooooooooooooo****OOOO****    ",
"OOOO****OOOOoooooooooooooooooooooooooooooooooooo****OOOO****    ",
"OOOO****OOOOoooooooooooooooooooooooooooooooooooo****OOOO****    ",
"OOOO****OOOOoooooooooooooooooooooooooooooooooooo****OOOO****    ",
"OOOOOOOOOOOOooooooooooooooooooooooooooooooooooooOOOOOOOO****    ",
"OOOOOOOOOOOOooooooooooooooo###ooooooooooooooooooOOOOOOOO****    ",
"OOOOOOOOOOOOooooooooo$ooo###oooo@@@@@@ooooooooooOOOOOOOO****    ",
"OOOOOOOOOOOOooooooooo$oo###@@@@@@@ooooooooooooooOOOOOOOO****    ",
"OOOOooooooooooooooo$$o####@@@##@@o++++oooooooooooooooooo****    ",
"OOOOoooooooooooooo$$o##$#@@@##@o++++@@++++oooooooooooooo****    ",
"OOOOoooooooooooooo$$o#$$#@###@++@@@@@+++o+++oooooooooooo****    ",
"OOOOooooooooooooo$$$##$#@@##@+@@@+++XXXXXXoooooooooooooo****    ",
"OOOOoooooooooo%o$%$o#$$@@##@+@@@+XXXXX+XXXXooooooooooooo****    ",
"OOOOooooooooo%%o$%%##$$@###@@@@+oX+++++++++XXooooooooooo****    ",
"OOOOooooooooo%%o$%%#$$#@##@@@@+X++++++XXXXXXXXXooooooooo****    ",
"OOOOooooooooo%%$$%$##$####@@@@+++++Xo.......XXXooooooooo****    ",
"OOOOooooooooo%%$%%$#$$o###@@@++++XXXXXXXX.X...oXXooooooo****    ",
"OOOOoooooo&o%&%$$%%#$$####@@@+++XXXXXXXXXXXX..oooooooooo****    ",
"OOOOoooooo&o%&&o$%%o$$$##@@@@+++XXXXXX.o...XXX.ooooooooo****    ",
"OOOOoooooo&o%&&%$%%$$$$###@@+++XXX...........XX.oooooooo****    ",
"OOOOoooooo&o%%&$$%%$$$$###@@+++XX................ooooooo****    ",
"OOOOoooooo&&%%&%$$%%$$$$###@@+XX...............o..oooooo****    ",
"OOOOoooooo&&o%%&%%%%$$$$###@@XXX.........o........oooooo****    ",
"OOOOoooooo&&&%%&&%%%%$$$$$#@oX.o................o.oooooo****    ",
"OOOOoooooo&==o%&&&%%%%$$$$##oooo................oo.ooooo****    ",
"OOOOoooo=o&&=&%%&&&%%%%%%%$ooooo.................ooooooo****    ",
"OOOOooooo=o&==&%%&&&%%%%%%%oooo...............o..ooooooo****    ",
"OOOOooooo=o&&==&o&&&&&&&&&#oooo..=...............ooooooo****    ",
"OOOOooooo===&====&&&&&&&&&&$oo...===...........o..oooooo****    ",
"OOOOoooooo==&&&===&&&&&&&===%%&=====..............oooooo****    ",
"OOOOoooooo====&&===================.............oooooooo****    ",
"OOOOooooooo====&&&=================.............o.oooooo****    ",
"OOOOooooooo======ooo==============.............ooooooooo****    ",
"OOOOoooooo=o=====================..............ooooooooo****    ",
"OOOOooooooo=====================...............ooooooooo****    ",
"OOOOooooooo===oo===============..........o...o.ooooooooo****    ",
"OOOOoooooooo========ooo=======...............o.ooooooooo****    ",
"OOOOooooooooo==============.oo...........o..oooooooooooo****    ",
"OOOOoooooooooo===========.ooo...............o.oooooooooo****    ",
"OOOOoooooooooooo=========o.................ooooooooooooo****    ",
"OOOOoooooooooooooo=======...............o..ooooooooooooo****    ",
"OOOOooooooooooooooooooo................oo.oooooooooooooo****    ",
"OOOOoooooooooooooo....................oo.ooooooooooooooo****    ",
"OOOOooooooooooooooooooooooooo....oo..ooooooooooooooooooo****    ",
"OOOO****OOOOoooooooooooooo....oooo..oooooooooooo****OOOO****    ",
"OOOO****OOOOooooooooooooo.o.ooooo.oooooooooooooo****OOOO****    ",
"OOOO****OOOOoooooooooooooooooooooooooooooooooooo****OOOO****    ",
"OOOO****OOOOoooooooooooooooooooooooooooooooooooo****OOOO****    ",
"OOOOOOOOOOOOooooooooooooooooooooooooooooooooooooOOOOOOOO****    ",
"OOOOOOOOOOOOooooooooooooooooooooooooooooooooooooOOOOOOOO****    ",
"OOOOOOOOOOOOooooooooooooooooooooooooooooooooooooOOOOOOOO****    ",
"OOOOOOOOOOOOooooooooooooooooooooooooooooooooooooOOOOOOOO****    ",
"************************************************************    ",
"************************************************************    ",
"************************************************************    ",
"************************************************************    ",
"                                                                ",
"                                                                ",
"                                                                ",
"                                                                "
};
