/* XPM */
static char *_3a0f45e440e4c31e4d087c0cd997a3botyf9qXpayCWTfvs[] = {
/* columns rows colors chars-per-pixel */
"64 64 4 1 ",
"  c #503197",
". c #E17CB7",
"X c #BF53C9",
"o c #EFAAA5",
/* pixels */
"XXXXXXXXXXXXXXXXXXXXXXXXXXXXXXXXXXXXXXXXXXXXXXXXXXXXXXXXXXXX    ",
"XXXXXXXXXXXXXXXXXXXXXXXXXXXXXXXXXXXXXXXXXXXXXXXXXXXXXXXXXXXX    ",
"XXXXXXXXXXXXXXXXXXXXXXXXXXXXXXXXXXXXXXXXXXXXXXXXXXXXXXXXXXXX    ",
"XXXXXXXXXXXXXXXXXXXXXXXXXXXXXXXXXXXXXXXXXXXXXXXXXXXXXXXXXXXX    ",
"XXXXooooXXXX....................................ooooXXXXoooo    ",
"XXXXooooXXXX....................................ooooXXXXoooo    ",
"XXXXooooXXXX....................................ooooXXXXoooo    ",
"XXXXooooXXXX....................................ooooXXXXoooo    ",
"XXXXXXXXXXXX....................................XXXXXXXXoooo    ",
"XXXXXXXXXXXX....................................XXXXXXXXoooo    ",
"XXXXXXXXXXXX....................................XXXXXXXXoooo    ",
"XXXXXXXXXXXX....................................XXXXXXXXoooo    ",
"XXXX....................................................oooo    ",
"XXXX....................................................oooo    ",
"XXXX....................................................oooo    ",
"XXXX....................................................oooo    ",
"XXXX....................................................oooo    ",
"XXXX....................................................oooo    ",
"XXXX....................................................oooo    ",
"XXXX....................................................oooo    ",
"XXXX....................................................oooo    ",
"XXXX....................................................oooo    ",
"XXXX....................................................oooo    ",
"XXXX....................................................oooo    ",
"XXXX....................................................oooo    ",
"XXXX....................................................oooo    ",
"XXXX....................................................oooo    ",
"XXXX....................................................oooo    ",
"XXXX....................................................oooo    ",
"XXXX....................................................oooo    ",
"XXXX....................................................oooo    ",
"XXXX....................................................oooo    ",
"XXXX....................................................oooo    ",
"XXXX....................................................oooo    ",
"XXXX....................................................oooo    ",
"XXXX....................................................oooo    ",
"XXXX....................................................oooo    ",
"XXXX....................................................oooo    ",
"XXXX....................................................oooo    ",
"XXXX....................................................oooo    ",
"XXXX....................................................oooo    ",
"XXXX....................................................oooo    ",
"XXXX....................................................oooo    ",
"XXXX....................................................oooo    ",
"XXXX....................................................oooo    ",
"XXXX....................................................oooo    ",
"XXXX....................................................oooo    ",
"XXXX....................................................oooo    ",
"XXXXooooXXXX....................................ooooXXXXoooo    ",
"XXXXooooXXXX....................................ooooXXXXoooo    ",
"XXXXooooXXXX....................................ooooXXXXoooo    ",
"XXXXooooXXXX....................................ooooXXXXoooo    ",
"XXXXXXXXXXXX....................................XXXXXXXXoooo    ",
"XXXXXXXXXXXX....................................XXXXXXXXoooo    ",
"XXXXXXXXXXXX....................................XXXXXXXXoooo    ",
"XXXXXXXXXXXX....................................XXXXXXXXoooo    ",
"oooooooooooooooooooooooooooooooooooooooooooooooooooooooooooo    ",
"oooooooooooooooooooooooooooooooooooooooooooooooooooooooooooo    ",
"oooooooooooooooooooooooooooooooooooooooooooooooooooooooooooo    ",
"oooooooooooooooooooooooooooooooooooooooooooooooooooooooooooo    ",
"                                                                ",
"                                                                ",
"                                                                ",
"                                                                "
};
